<svg xmlns="http://www.w3.org/2000/svg" width="11" height="11" viewBox="0 0 11 11">
    <path fill="#959595" fill-rule="nonzero" d="M2.775 10.922a2.719 2.719 0 0 1-1.937-.8 2.72 2.72 0 0 1-.8-1.937c0-.733.285-1.42.8-1.936L6.503.584c.81-.81 2.07-.774 2.93.086.859.86.896 2.118.085 2.93L4.197 8.92c-.5.5-1.314.501-1.814 0-.5-.5-.5-1.313 0-1.813l3.605-3.605a.311.311 0 1 1 .44.44L2.823 7.548a.66.66 0 0 0 .933.934l5.322-5.322c.56-.56.523-1.44-.086-2.049-.608-.609-1.49-.645-2.049-.086L1.278 6.69c-.397.398-.617.93-.617 1.496 0 .568.22 1.1.617 1.497.398.398.93.617 1.497.617.567 0 1.099-.22 1.497-.617l5.664-5.665a.311.311 0 1 1 .44.44l-5.664 5.665a2.72 2.72 0 0 1-1.937.8z"/>
</svg>
