<svg xmlns="http://www.w3.org/2000/svg" width="18" height="18" viewBox="0 0 18 18">
    <g fill="none" fill-rule="nonzero">
        <g fill="#555">
            <path d="M10.359.105a.378.378 0 0 0-.318-.074L.291 2.255A.372.372 0 0 0 0 2.62v12.605c0 .183.135.338.318.366l9.75 1.483a.374.374 0 0 0 .432-.366V.395a.369.369 0 0 0-.141-.29z"/>
            <path d="M17.625 15.595h-7.5a.373.373 0 0 1-.375-.37c0-.205.168-.371.375-.371h7.125V2.249h-7.125a.373.373 0 0 1-.375-.37c0-.205.168-.371.375-.371h7.5c.207 0 .375.166.375.37v13.347c0 .204-.168.37-.375.37z"/>
        </g>
        <g fill="#FFF">
            <path d="M6.805 12.565a.368.368 0 0 1-.316-.187L2.77 6.044a.412.412 0 0 1 .101-.549.359.359 0 0 1 .53.13l3.72 6.335a.41.41 0 0 1-.12.545.356.356 0 0 1-.195.06z"/>
            <path d="M3.084 12.565c-.206 0-.372-.179-.372-.397 0-.074.02-.146.057-.21l3.72-6.333A.36.36 0 0 1 7 5.48a.41.41 0 0 1 .122.563L3.4 12.378a.368.368 0 0 1-.316.187z"/>
        </g>
        <g fill="#555">
            <path d="M13.22 16.19a.373.373 0 0 1-.367-.379V2.191c0-.208.164-.378.367-.378.204 0 .368.17.368.379v13.62a.373.373 0 0 1-.368.378z"/>
            <path d="M17.632 13.92H10.28a.373.373 0 0 1-.368-.379c0-.209.165-.378.368-.378h7.353c.203 0 .368.17.368.378a.373.373 0 0 1-.368.379zM17.632 11.65H10.28a.373.373 0 0 1-.368-.379c0-.208.165-.378.368-.378h7.353c.203 0 .368.17.368.378a.373.373 0 0 1-.368.379zM17.632 9.38H10.28a.373.373 0 0 1-.368-.378c0-.21.165-.379.368-.379h7.353c.203 0 .368.17.368.379a.373.373 0 0 1-.368.378zM17.632 7.11H10.28a.373.373 0 0 1-.368-.378c0-.21.165-.379.368-.379h7.353c.203 0 .368.17.368.379a.373.373 0 0 1-.368.378zM17.632 4.84H10.28a.373.373 0 0 1-.368-.378c0-.21.165-.379.368-.379h7.353c.203 0 .368.17.368.379a.373.373 0 0 1-.368.378z"/>
        </g>
    </g>
</svg>
