<svg xmlns="http://www.w3.org/2000/svg" width="77" height="76" viewBox="0 0 77 76">
    <g fill="none" fill-rule="nonzero" transform="translate(.705 .705)">
        <path fill="#2358DB" d="M66.635 50.063l-5.126-24.636-32.338 6.846 1.06 5.093.557 2.679 3.508 16.864a1.33 1.33 0 0 0 1.574 1.037l29.737-6.295a1.34 1.34 0 0 0 1.028-1.588z"/>
        <path fill="#3A312A" d="M67.13 49.958l-5.125-24.636a.508.508 0 0 0-.6-.395l-32.338 6.846a.507.507 0 0 0-.392.605L33.8 57.014a1.843 1.843 0 0 0 2.173 1.432l29.737-6.295c.48-.101.892-.385 1.16-.8.268-.414.36-.909.26-1.393zm-1.627 1.193l-29.737 6.295a.826.826 0 0 1-.974-.642L31.283 39.94l-1.513-7.272 31.348-6.636 5.021 24.136a.83.83 0 0 1-.636.983z"/>
        <path fill="#2358DB" d="M63.882 23.694l-.626-3.012a1.194 1.194 0 0 0-1.414-.932l-26.249 5.557-4.599.974-3.839.813a1.205 1.205 0 0 0-.923 1.426l.626 3.012a1.194 1.194 0 0 0 1.414.931l34.687-7.342a1.205 1.205 0 0 0 .923-1.427z"/>
        <path fill="#3A312A" d="M64.378 23.589l-.627-3.012a1.703 1.703 0 0 0-2.013-1.327L35.49 24.807a.51.51 0 0 0 .207 1l26.249-5.556a.69.69 0 0 1 .814.536l.626 3.012a.695.695 0 0 1-.531.82l-34.687 7.344a.687.687 0 0 1-.814-.536l-.627-3.012a.696.696 0 0 1 .532-.821l3.839-.813a.51.51 0 0 0-.208-1l-3.84.813a1.718 1.718 0 0 0-1.315 2.032l.627 3.01a1.707 1.707 0 0 0 2.014 1.327l34.687-7.343a1.714 1.714 0 0 0 1.315-2.031z"/>
        <path fill="#B3B3B3" d="M38.474 24.698l12.383-2.622 1.117 5.37-12.383 2.622z"/>
        <path fill="#3A312A" d="M52.469 27.341l-1.118-5.37a.505.505 0 0 0-.6-.395L38.37 24.198a.507.507 0 0 0-.392.605l1.118 5.37a.507.507 0 0 0 .6.395l12.382-2.622a.51.51 0 0 0 .392-.605zm-12.487 2.122l-.91-4.37 11.392-2.412.909 4.37-11.391 2.412z"/>
        <path fill="#D7D7D7" d="M51.974 27.45L39.59 30.07l1.722 8.277 3.198-3.475 1.831 2.41 1.231-1.717 2.062 1.02 1.614-1.959 2.447 1.1z"/>
        <path fill="#3A312A" d="M54.191 35.62l-1.722-8.276a.504.504 0 0 0-.6-.395l-12.382 2.622a.507.507 0 0 0-.392.604l1.722 8.276a.509.509 0 0 0 .496.406.505.505 0 0 0 .371-.163l2.79-3.031 1.466 1.93a.506.506 0 0 0 .812-.011l.982-1.37 1.677.832c.21.104.464.049.613-.133l1.37-1.661 2.095.942a.504.504 0 0 0 .525-.07.511.511 0 0 0 .177-.501zm-2.736-1.46a.503.503 0 0 0-.595.14l-1.36 1.65-1.703-.844a.504.504 0 0 0-.634.16l-.833 1.161-1.416-1.865a.505.505 0 0 0-.774-.037l-2.532 2.752-1.417-6.81 11.391-2.412 1.414 6.797-1.54-.693z"/>
        <path fill="#C8D8FF" d="M75.642 52.05a2.364 2.364 0 0 0-2.798-1.843l-45.495 9.631L15.86 4.612l-4.626.98 3.51 16.87.927 4.458 7.538 36.23a2.362 2.362 0 0 0 2.799 1.845l47.807-10.121a2.383 2.383 0 0 0 1.828-2.824z"/>
        <path fill="#3A312A" d="M76.138 51.946c-.325-1.563-1.852-2.567-3.398-2.24l-45 9.527L16.356 4.507a.509.509 0 0 0-.6-.395l-4.626.98a.507.507 0 0 0-.392.604l3.51 16.871a.507.507 0 0 0 .6.396.51.51 0 0 0 .39-.605L11.833 5.987l3.636-.77 11.386 54.726a.502.502 0 0 0 .6.395l45.494-9.631a1.86 1.86 0 0 1 2.199 1.448 1.876 1.876 0 0 1-1.436 2.219l-47.809 10.12c-.486.104-.982.01-1.397-.264a1.862 1.862 0 0 1-.801-1.184l-7.539-36.231a.508.508 0 0 0-.599-.395.51.51 0 0 0-.392.605l7.538 36.23a2.878 2.878 0 0 0 2.802 2.303c.199 0 .398-.02.597-.063l47.807-10.121a2.851 2.851 0 0 0 1.815-1.25c.419-.647.562-1.42.405-2.178z"/>
        <path fill="#D7D7D7" d="M38.469 67.826c-.607-2.916-3.442-4.784-6.333-4.172-2.89.613-4.742 3.472-4.135 6.388.607 2.916 3.442 4.783 6.332 4.171 2.89-.612 4.742-3.471 4.136-6.387z"/>
        <path fill="#3A312A" d="M38.964 67.72c-.663-3.186-3.775-5.235-6.931-4.566-3.16.669-5.19 3.806-4.527 6.992.578 2.78 3.018 4.694 5.728 4.694.397 0 .8-.042 1.204-.127 3.158-.669 5.19-3.806 4.526-6.992zm-4.735 5.993c-2.614.553-5.184-1.141-5.732-3.776-.549-2.636 1.131-5.23 3.743-5.783 2.613-.553 5.184 1.142 5.733 3.777.548 2.635-1.131 5.229-3.744 5.782z"/>
        <path fill="#B3B3B3" d="M35.376 68.48a2.188 2.188 0 0 0-2.59-1.706 2.206 2.206 0 0 0-1.692 2.613 2.188 2.188 0 0 0 2.59 1.706 2.206 2.206 0 0 0 1.692-2.613z"/>
        <path fill="#3A312A" d="M35.872 68.376c-.306-1.467-1.736-2.41-3.19-2.102a2.675 2.675 0 0 0-1.703 1.174 2.717 2.717 0 0 0-.38 2.044 2.702 2.702 0 0 0 2.63 2.16c.186 0 .373-.019.56-.058 1.453-.308 2.388-1.752 2.083-3.218zm-2.292 2.217a1.685 1.685 0 0 1-1.99-1.311 1.698 1.698 0 0 1 1.3-2.008c.116-.025.231-.037.345-.037.779 0 1.48.55 1.645 1.348a1.698 1.698 0 0 1-1.3 2.008z"/>
        <ellipse cx="67.286" cy="61.723" fill="#D7D7D7" rx="5.348" ry="5.394" transform="rotate(-3.509 67.286 61.723)"/>
        <path fill="#3A312A" d="M73.017 60.512c-.663-3.187-3.772-5.236-6.931-4.567a5.816 5.816 0 0 0-3.7 2.55 5.909 5.909 0 0 0-.827 4.442 5.865 5.865 0 0 0 2.528 3.732 5.775 5.775 0 0 0 4.403.835c3.16-.669 5.19-3.806 4.527-6.992zm-4.734 5.992a4.774 4.774 0 0 1-3.642-.69 4.852 4.852 0 0 1-2.09-3.086 4.889 4.889 0 0 1 .684-3.674 4.81 4.81 0 0 1 4.054-2.214 4.86 4.86 0 0 1 4.737 3.881c.548 2.636-1.131 5.23-3.743 5.783z"/>
        <path fill="#B3B3B3" d="M69.43 61.271a2.188 2.188 0 0 0-2.591-1.706 2.206 2.206 0 0 0-1.692 2.613 2.188 2.188 0 0 0 2.59 1.706 2.206 2.206 0 0 0 1.692-2.613z"/>
        <path fill="#3A312A" d="M69.925 61.166a2.702 2.702 0 0 0-1.164-1.717 2.66 2.66 0 0 0-2.026-.384c-1.454.308-2.389 1.751-2.084 3.218a2.705 2.705 0 0 0 2.637 2.16 2.682 2.682 0 0 0 2.256-1.232 2.718 2.718 0 0 0 .38-2.045zm-1.23 1.486c-.245.379-.622.64-1.062.732-.905.191-1.8-.396-1.99-1.311a1.698 1.698 0 0 1 1.3-2.008 1.685 1.685 0 0 1 1.99 1.311c.093.443.008.896-.237 1.276z"/>
        <path fill="#D7D7D7" d="M15.04.61L2.232 3.32A2.044 2.044 0 0 0 .666 5.74a2.027 2.027 0 0 0 2.4 1.581l12.805-2.71L15.04.61z"/>
        <path fill="#3A312A" d="M16.367 4.505l-.832-4a.507.507 0 0 0-.6-.395L2.13 2.82c-.662.14-1.23.532-1.6 1.104a2.555 2.555 0 0 0-.358 1.922 2.542 2.542 0 0 0 2.478 2.03 2.5 2.5 0 0 0 .52-.055l12.807-2.71a.507.507 0 0 0 .391-.606zM2.962 6.821a1.521 1.521 0 0 1-1.8-1.186 1.533 1.533 0 0 1 1.175-1.814l12.31-2.607.625 3-12.31 2.607z"/>
        <path fill="#1148CF" d="M66.138 50.168l-5.021-24.136-3.636.77 5.021 24.135a.83.83 0 0 1-.633.984l3.635-.77a.83.83 0 0 0 .634-.983zM63.387 23.797l-.626-3.01a.692.692 0 0 0-.816-.538l-3.635.77a.692.692 0 0 1 .816.537l.626 3.011a.696.696 0 0 1-.533.823l3.636-.77a.696.696 0 0 0 .532-.823z"/>
        <path fill="#AFC6FD" d="M75.146 52.156a1.861 1.861 0 0 0-2.199-1.449l-3.635.77a1.86 1.86 0 0 1 2.199 1.448 1.877 1.877 0 0 1-1.436 2.218l3.635-.77a1.876 1.876 0 0 0 1.436-2.217z"/>
    </g>
</svg>
