<?xml version="1.0" encoding="UTF-8"?>
<svg width="14px" height="19px" viewBox="0 0 14 19" version="1.1" xmlns="http://www.w3.org/2000/svg" xmlns:xlink="http://www.w3.org/1999/xlink">
    <!-- Generator: sketchtool 53 (72520) - https://sketchapp.com -->
    <title>493E1154-9FEF-4F90-805F-00D7A166CCD3</title>
    <desc>Created with sketchtool.</desc>
    <g id="Menu" stroke="none" stroke-width="1" fill="none" fill-rule="evenodd">
        <g transform="translate(-339.000000, -527.000000)" fill="#2C2C2C" fill-rule="nonzero" id="אייקון-דוחות">
            <g transform="translate(340.000000, 528.000000)">
                <path d="M12.4663057,4.57060938 L7.96998195,0.0984140625 C7.90662242,0.0353945312 7.82072985,0 7.73109848,0 L1.3953786,0 C0.625950817,0 0,0.622591797 0,1.38789062 L0,15.6121094 C0,16.3774082 0.625950817,17 1.3953786,17 L11.1698388,17 C11.9392666,17 12.5652174,16.3774082 12.5652174,15.6121094 L12.5652174,4.80817773 C12.5652174,4.71909375 12.5296319,4.6335957 12.4663057,4.57060938 Z M8.06892698,1.14713477 L11.411927,4.47212891 L8.78868196,4.47212891 C8.39180023,4.47212891 8.06896036,4.15098828 8.06896036,3.75620312 L8.06892698,1.14713477 L8.06892698,1.14713477 Z M11.8896271,15.6121094 C11.8896271,16.0068613 11.5667539,16.3280352 11.1698388,16.3280352 L1.3953786,16.3280352 C0.998496874,16.3280352 0.675590242,16.0068613 0.675590242,15.6121094 L0.675590242,1.38789062 C0.675590242,0.993138672 0.998496874,0.671964844 1.3953786,0.671964844 L7.39330336,0.671964844 L7.39330336,3.75626953 C7.39330336,4.52156836 8.01922079,5.14416016 8.78864858,5.14416016 L11.8896271,5.14416016 L11.8896271,15.6121094 L11.8896271,15.6121094 Z" id="Shape" stroke="#2C2C2C" stroke-width="0.3"></path>
                <path d="M8.58453024,9 L3.32851324,9 C3.14709887,9 3,9.16548078 3,9.36956522 C3,9.57364966 3.14709887,9.73913043 3.32851324,9.73913043 L8.58453024,9.73913043 C8.76600954,9.73913043 8.91304348,9.57364966 8.91304348,9.36956522 C8.91304348,9.16548078 8.76600954,9 8.58453024,9 Z" id="Path"></path>
                <path d="M8.58453024,11 L3.32851324,11 C3.14709887,11 3,11.1654808 3,11.3695652 C3,11.5736497 3.14709887,11.7391304 3.32851324,11.7391304 L8.58453024,11.7391304 C8.76600954,11.7391304 8.91304348,11.5736497 8.91304348,11.3695652 C8.91304348,11.1654808 8.76600954,11 8.58453024,11 Z" id="Path"></path>
                <path d="M7.08830398,13 L3.34647863,13 C3.15514326,13 3,13.1654808 3,13.3695652 C3,13.5736497 3.15514326,13.7391304 3.34647863,13.7391304 L7.08830398,13.7391304 C7.27970783,13.7391304 7.43478261,13.5736497 7.43478261,13.3695652 C7.43478261,13.1654808 7.27970783,13 7.08830398,13 Z" id="Path"></path>
            </g>
        </g>
    </g>
</svg>