<svg xmlns="http://www.w3.org/2000/svg" width="48" height="48" viewBox="0 0 48 48">
    <g fill="none" fill-rule="nonzero">
        <path fill="#C8D8FF" d="M45.228.316h-31.04c-1.148 0-2.082.932-2.082 2.083V41.46A5.876 5.876 0 0 1 7.5 47.205l-.088.143h35.204a4.694 4.694 0 0 0 4.694-4.694V2.399c0-1.151-.931-2.083-2.082-2.083z"/>
        <path fill="#000" d="M45.228 0h-7.784a.316.316 0 0 0 0 .632h7.784c.974 0 1.766.793 1.766 1.767v40.255a4.383 4.383 0 0 1-4.378 4.378H8.948a6.214 6.214 0 0 0 1.657-1.185 6.17 6.17 0 0 0 1.817-4.387V2.4c0-.974.793-1.767 1.767-1.767h20.037a.316.316 0 0 0 0-.632H14.189a2.401 2.401 0 0 0-2.4 2.399V41.46c0 1.487-.579 2.886-1.63 3.94a5.549 5.549 0 0 1-2.727 1.496.316.316 0 0 0-.2.143l-.09.143a.316.316 0 0 0 .27.482h35.204a5.016 5.016 0 0 0 5.01-5.01V2.399A2.401 2.401 0 0 0 45.229 0z"/>
        <path fill="#2358DB" d="M2.412 12.68c-1.15 0-2.083.932-2.083 2.082V41.46a5.888 5.888 0 1 0 11.777 0V12.68H2.412z"/>
        <path fill="#000" d="M12.106 12.363H2.412a2.402 2.402 0 0 0-2.4 2.4v10.436a.317.317 0 0 0 .633 0V14.762c0-.974.793-1.767 1.767-1.767h9.378V41.46c0 3.073-2.5 5.573-5.573 5.573A5.578 5.578 0 0 1 .645 41.46V28.528a.316.316 0 0 0-.632 0V41.46a6.212 6.212 0 0 0 6.205 6.204 6.212 6.212 0 0 0 6.204-6.204V12.68a.316.316 0 0 0-.316-.317z"/>
        <path fill="#B3B3B3" d="M40.714 14.155H18.661c-.934 0-1.691.757-1.691 1.691v7.24c0 .934.757 1.691 1.691 1.691h22.053c.935 0 1.692-.757 1.692-1.692v-7.239c0-.934-.757-1.691-1.692-1.691z"/>
        <path fill="#000" d="M40.714 13.839H18.661a2.01 2.01 0 0 0-2.007 2.007v7.24c0 1.106.9 2.007 2.007 2.007h22.053a2.01 2.01 0 0 0 2.008-2.008v-7.239a2.01 2.01 0 0 0-2.008-2.007zm1.376 9.246c0 .759-.617 1.376-1.376 1.376H18.661a1.377 1.377 0 0 1-1.375-1.376v-7.239c0-.758.617-1.375 1.375-1.375h22.053c.759 0 1.376.617 1.376 1.375v7.24z"/>
        <path fill="#D7D7D7" d="M40.992 4.498H18.384c-.781 0-1.414.633-1.414 1.414v2.106c0 .78.633 1.414 1.414 1.414h22.608c.781 0 1.414-.633 1.414-1.414V5.912c0-.781-.633-1.414-1.414-1.414z"/>
        <g fill="#000">
            <path d="M40.992 4.182H18.384c-.955 0-1.73.776-1.73 1.73v2.106c0 .954.775 1.73 1.73 1.73h22.608c.954 0 1.73-.776 1.73-1.73V5.912c0-.954-.776-1.73-1.73-1.73zm1.098 3.836c0 .606-.492 1.098-1.098 1.098H18.384a1.099 1.099 0 0 1-1.098-1.098V5.912c0-.605.492-1.098 1.098-1.098h22.608c.606 0 1.098.493 1.098 1.098v2.106zM42.406 28.644H16.97a.316.316 0 0 0 0 .632h25.436a.316.316 0 0 0 0-.632zM42.406 33.06H16.97a.316.316 0 0 0 0 .633h25.436a.316.316 0 0 0 0-.632zM42.406 37.478H16.97a.316.316 0 0 0 0 .632h25.436a.317.317 0 0 0 0-.632zM42.406 41.894H16.97a.316.316 0 0 0 0 .633h25.436a.316.316 0 0 0 0-.633z"/>
        </g>
        <path fill="#AFC6FD" d="M45.228.632h-2.913c.973 0 1.766.793 1.766 1.767v40.255a4.382 4.382 0 0 1-4.376 4.378h2.911a4.384 4.384 0 0 0 4.378-4.378V2.399c0-.974-.792-1.767-1.766-1.767z"/>
    </g>
</svg>
