<svg xmlns="http://www.w3.org/2000/svg" width="39" height="51" viewBox="0 0 39 51">
    <g fill="none" fill-rule="nonzero">
        <path fill="#C8D8FF" d="M.542 8.35v39.738a2.517 2.517 0 0 0 2.516 2.516H35.61a2.517 2.517 0 0 0 2.516-2.516V8.35H.542z"/>
        <path fill="#000" d="M38.127 8.012H.542a.338.338 0 0 0-.338.339v8.344a.338.338 0 1 0 .676 0V8.69h36.909v39.4a2.18 2.18 0 0 1-2.178 2.177H3.058A2.18 2.18 0 0 1 .88 48.088V19.994a.338.338 0 1 0-.676 0v28.094a2.857 2.857 0 0 0 2.854 2.854H35.61a2.857 2.857 0 0 0 2.854-2.854V8.351a.338.338 0 0 0-.338-.339z"/>
        <path fill="#2358DB" d="M35.61.362H3.058A2.516 2.516 0 0 0 .542 2.878V8.35h37.585V2.878A2.516 2.516 0 0 0 35.61.362z"/>
        <path fill="#000" d="M35.61.023H24.191a.338.338 0 1 0 0 .677h11.42a2.18 2.18 0 0 1 2.177 2.178v5.134H.88V2.878A2.18 2.18 0 0 1 3.058.7h17.938a.338.338 0 1 0 0-.677H3.058A2.858 2.858 0 0 0 .204 2.878V8.35c0 .186.151.338.338.338h37.584a.338.338 0 0 0 .338-.338V2.878A2.857 2.857 0 0 0 35.61.023zM33.533 19.66H4.592a.338.338 0 1 0 0 .676h28.941a.338.338 0 1 0 0-.677zM33.533 25.408H4.592a.338.338 0 1 0 0 .676h28.941a.338.338 0 1 0 0-.676zM33.533 13.91H4.592a.338.338 0 1 0 0 .677h28.941a.338.338 0 1 0 0-.676zM33.533 31.156H4.592a.338.338 0 1 0 0 .676h28.941a.338.338 0 1 0 0-.676zM28.492 36.904h-23.9a.338.338 0 1 0 0 .676h23.9a.338.338 0 1 0 0-.676zM21.273 42.653H4.592a.338.338 0 1 0 0 .676h16.681a.338.338 0 1 0 0-.676z"/>
        <path fill="#AFC6FD" d="M37.789 48.94V8.688h-3.382v41.554h1.69c.565 0 1.27-.505 1.692-1.304z"/>
        <path fill="#1148CF" d="M35.611.7H32.23c1.199 0 2.177.976 2.177 2.177v5.135h3.382V2.877A2.18 2.18 0 0 0 35.61.7z"/>
    </g>
</svg>
