<svg xmlns="http://www.w3.org/2000/svg" width="12" height="11" viewBox="0 0 12 11">
    <g fill="#959595" fill-rule="nonzero">
        <path d="M10.172 1.61A5.457 5.457 0 0 0 6.287 0 5.499 5.499 0 0 0 2.04 8.98c-.246.503-.536.84-.865 1a.514.514 0 0 0-.28.537.51.51 0 0 0 .427.43c.122.018.253.03.39.03.674 0 1.382-.232 1.974-.64a5.5 5.5 0 0 0 2.602.654c1.469 0 2.847-.57 3.885-1.609a5.459 5.459 0 0 0 1.609-3.884c0-1.466-.571-2.85-1.609-3.887zm-.44 7.33a4.841 4.841 0 0 1-3.445 1.427c-.87 0-1.723-.232-2.466-.67a.321.321 0 0 0-.157-.043.324.324 0 0 0-.191.064 2.959 2.959 0 0 1-1.724.633c.37-.276.682-.704.942-1.3a.313.313 0 0 0-.053-.332 4.879 4.879 0 0 1 .204-6.673A4.841 4.841 0 0 1 6.287.619c1.3 0 2.525.506 3.445 1.427a4.88 4.88 0 0 1 0 6.894z"/>
        <path d="M7.908 3.682H3.943c-.149 0-.267.138-.267.31 0 .173.118.311.267.311h3.965c.149 0 .268-.138.268-.31 0-.173-.121-.311-.268-.311zM6.497 5.185H3.854c-.1 0-.178.138-.178.31 0 .173.079.311.178.311h2.643c.1 0 .179-.138.179-.31 0-.173-.081-.311-.179-.311zM8.589 6.687H3.986a.31.31 0 0 0-.31.311c0 .173.138.31.31.31H8.59a.31.31 0 0 0 0-.621z"/>
    </g>
</svg>
