<svg xmlns="http://www.w3.org/2000/svg" width="18" height="17" viewBox="0 0 18 17">
    <path fill="#555" fill-rule="nonzero" d="M17.39 7.42a2.015 2.015 0 0 0-1.467-.602h-.692V4.091c0-.284-.072-.597-.216-.938-.145-.34-.318-.61-.52-.81L12.852.725c-.202-.198-.476-.369-.822-.511A2.53 2.53 0 0 0 11.077 0h-7.27c-.288 0-.533.1-.735.298a.979.979 0 0 0-.303.725v5.795h-.692c-.57 0-1.058.2-1.466.602A1.954 1.954 0 0 0 0 8.864v4.432c0 .092.034.171.103.24.068.067.15.1.243.1H2.77v1.705c0 .284.101.526.303.724.202.199.447.299.736.299h10.384c.289 0 .534-.1.736-.299a.98.98 0 0 0 .303-.724v-1.705h2.423a.335.335 0 0 0 .243-.1.326.326 0 0 0 .103-.24V8.864c0-.562-.203-1.043-.61-1.444zM13.845 15H4.154v-2.727h9.692V15zm0-6.818H4.154V1.364h6.923v1.704a.98.98 0 0 0 .303.725c.202.198.447.298.736.298h1.73v4.09zm2.564 1.16a.67.67 0 0 1-.487.203.67.67 0 0 1-.486-.202.65.65 0 0 1-.206-.48.65.65 0 0 1 .206-.479.67.67 0 0 1 .486-.202.67.67 0 0 1 .487.202.65.65 0 0 1 .206.48.65.65 0 0 1-.206.479z"/>
</svg>
