<svg xmlns="http://www.w3.org/2000/svg" width="17" height="18" viewBox="0 0 17 18">
    <path fill="#2358DB" fill-rule="nonzero" d="M16.618 15.636l-4.086-4.25a6.908 6.908 0 0 0 1.626-4.455c0-3.822-3.11-6.931-6.93-6.931A6.939 6.939 0 0 0 .296 6.93c0 3.822 3.109 6.932 6.93 6.932a6.857 6.857 0 0 0 3.971-1.255l4.117 4.282a.897.897 0 0 0 .651.277.905.905 0 0 0 .651-1.53zM7.228 1.808a5.129 5.129 0 0 1 5.122 5.123 5.129 5.129 0 0 1-5.123 5.123A5.129 5.129 0 0 1 2.105 6.93a5.129 5.129 0 0 1 5.122-5.123z"/>
</svg>
