<svg width="17" height="18" viewBox="0 0 17 18" fill="none" xmlns="http://www.w3.org/2000/svg">
<path fill-rule="evenodd" clip-rule="evenodd" d="M12.3262 11.4707L16.442 15.7514C16.7902 16.1136 16.7787 16.691 16.4168 17.0392C16.2465 17.2031 16.0222 17.2932 15.7857 17.2932C15.5359 17.2932 15.3027 17.194 15.1294 17.014L10.9823 12.7008C9.80475 13.5284 8.42745 13.9643 6.98214 13.9643C3.13225 13.9643 0 10.832 0 6.98214C0 3.13225 3.13225 0 6.98214 0C10.832 0 13.9643 3.13225 13.9643 6.98214C13.9643 8.62993 13.3845 10.2127 12.3262 11.4707ZM12.1429 6.98214C12.1429 4.13646 9.82782 1.82143 6.98214 1.82143C4.13646 1.82143 1.82143 4.13646 1.82143 6.98214C1.82143 9.82782 4.13646 12.1429 6.98214 12.1429C9.82782 12.1429 12.1429 9.82782 12.1429 6.98214Z" fill="#0B1632"/>
</svg>
