<svg xmlns="http://www.w3.org/2000/svg" width="17" height="17" viewBox="0 0 17 17">
    <g fill="#FFF" fill-rule="nonzero">
        <path d="M16.13 6.715l-1.193-.202a6.738 6.738 0 0 0-.48-1.158l.703-.983c.299-.42.252-.991-.113-1.353L13.988 1.96a1.042 1.042 0 0 0-1.35-.113l-.986.703a6.667 6.667 0 0 0-1.2-.494l-.2-1.179A1.05 1.05 0 0 0 9.216 0H7.72c-.514 0-.951.37-1.037.877l-.205 1.208a6.572 6.572 0 0 0-1.155.486l-.976-.703a1.043 1.043 0 0 0-.611-.195c-.28 0-.547.11-.742.309L1.932 3.04a1.051 1.051 0 0 0-.114 1.353l.71.998c-.195.373-.351.76-.472 1.161l-1.179.199A1.05 1.05 0 0 0 0 7.788v1.495c0 .515.37.952.877 1.037l1.208.206c.124.398.287.785.486 1.154l-.7.973c-.298.42-.252.991.114 1.353l1.058 1.059a1.042 1.042 0 0 0 1.35.113l.998-.71c.358.188.735.34 1.122.462l.199 1.193A1.05 1.05 0 0 0 7.749 17h1.498c.515 0 .952-.37 1.037-.877l.203-1.193a6.738 6.738 0 0 0 1.158-.48l.983.703a1.042 1.042 0 0 0 1.353-.114l1.059-1.058c.362-.362.412-.934.113-1.353l-.703-.987a6.69 6.69 0 0 0 .48-1.158l1.193-.198A1.05 1.05 0 0 0 17 9.248V7.752a1.037 1.037 0 0 0-.87-1.037zm-.082 2.533a.092.092 0 0 1-.078.092l-1.491.248a.477.477 0 0 0-.384.352 5.685 5.685 0 0 1-.618 1.488.48.48 0 0 0 .021.522l.878 1.236a.097.097 0 0 1-.011.12l-1.058 1.059a.09.09 0 0 1-.068.028.087.087 0 0 1-.053-.017l-1.232-.878a.48.48 0 0 0-.522-.02 5.685 5.685 0 0 1-1.488.617.471.471 0 0 0-.352.384L9.34 15.97a.092.092 0 0 1-.093.078H7.752a.092.092 0 0 1-.092-.078l-.249-1.491a.477.477 0 0 0-.351-.384 5.903 5.903 0 0 1-1.456-.597.492.492 0 0 0-.242-.063.468.468 0 0 0-.277.088l-1.243.885a.106.106 0 0 1-.053.017.095.095 0 0 1-.067-.028l-1.059-1.058a.096.096 0 0 1-.01-.121l.873-1.225a.486.486 0 0 0 .022-.526 5.631 5.631 0 0 1-.625-1.484.486.486 0 0 0-.384-.352l-1.502-.256a.092.092 0 0 1-.078-.092V7.788c0-.046.032-.085.078-.092l1.48-.249a.48.48 0 0 0 .388-.355A5.68 5.68 0 0 1 3.512 5.6a.474.474 0 0 0-.025-.518l-.884-1.243a.097.097 0 0 1 .01-.12l1.059-1.06a.09.09 0 0 1 .067-.027c.022 0 .04.007.054.017l1.225.874c.156.11.362.117.526.021.461-.277.962-.49 1.484-.625a.486.486 0 0 0 .352-.383l.255-1.503a.092.092 0 0 1 .093-.078h1.495c.046 0 .085.032.092.078l.249 1.481a.48.48 0 0 0 .355.387 5.764 5.764 0 0 1 1.523.625.48.48 0 0 0 .522-.02l1.225-.882a.106.106 0 0 1 .054-.017c.014 0 .042.003.067.028l1.058 1.058a.096.096 0 0 1 .011.121l-.877 1.232a.48.48 0 0 0-.021.522c.277.466.483.966.618 1.488a.471.471 0 0 0 .383.352l1.492.252a.092.092 0 0 1 .078.092v1.496h-.004z"/>
        <path d="M8.5 5A3.502 3.502 0 0 0 5 8.5C5 10.431 6.569 12 8.5 12S12 10.431 12 8.5 10.431 5 8.5 5zm0 6.085A2.587 2.587 0 0 1 5.915 8.5 2.587 2.587 0 0 1 8.5 5.915 2.587 2.587 0 0 1 11.085 8.5 2.587 2.587 0 0 1 8.5 11.085z"/>
    </g>
</svg>
