<svg xmlns="http://www.w3.org/2000/svg" width="22" height="17" viewBox="0 0 22 17">
    <g fill="none" fill-rule="nonzero">
        <path fill="#FFF" stroke="#2C2C2C" stroke-linecap="round" d="M7.116 12.361a7.5 7.5 0 1 0-.304-6.916"/>
        <path fill="#2C2C2C" d="M3.565 5.12a.374.374 0 0 1 .55 0 .417.417 0 0 1 0 .568l-2.79 2.907h13.29c.214 0 .385.178.385.402 0 .224-.17.407-.385.407H1.325l2.79 2.902a.424.424 0 0 1 0 .574.374.374 0 0 1-.55 0L.115 9.284a.407.407 0 0 1 0-.568l3.45-3.596z"/>
    </g>
</svg>
