<?xml version="1.0" encoding="UTF-8" standalone="no"?>
<svg
   xmlns:dc="http://purl.org/dc/elements/1.1/"
   xmlns:cc="http://creativecommons.org/ns#"
   xmlns:rdf="http://www.w3.org/1999/02/22-rdf-syntax-ns#"
   xmlns:svg="http://www.w3.org/2000/svg"
   xmlns="http://www.w3.org/2000/svg"
   xmlns:sodipodi="http://sodipodi.sourceforge.net/DTD/sodipodi-0.dtd"
   xmlns:inkscape="http://www.inkscape.org/namespaces/inkscape"
   width="188.77719"
   height="131.59138"
   viewBox="0 0 188.77719 131.59138"
   version="1.1"
   id="svg43"
   sodipodi:docname="suitcase.svg"
   inkscape:export-filename="D:\projects\epr-web\epr-mono\assets\suitcase.png"
   inkscape:export-xdpi="55.52"
   inkscape:export-ydpi="55.52"
   inkscape:version="0.92.4 (5da689c313, 2019-01-14)">
  <metadata
     id="metadata49">
    <rdf:RDF>
      <cc:Work
         rdf:about="">
        <dc:format>image/svg+xml</dc:format>
        <dc:type
           rdf:resource="http://purl.org/dc/dcmitype/StillImage" />
        <dc:title>257C91DE-9B8F-4290-BCB9-519AF92A6846</dc:title>
      </cc:Work>
    </rdf:RDF>
  </metadata>
  <defs
     id="defs47" />
  <sodipodi:namedview
     pagecolor="#ffffff"
     bordercolor="#666666"
     borderopacity="1"
     objecttolerance="10"
     gridtolerance="10"
     guidetolerance="10"
     inkscape:pageopacity="0"
     inkscape:pageshadow="2"
     inkscape:window-width="1920"
     inkscape:window-height="1017"
     id="namedview45"
     showgrid="false"
     inkscape:pagecheckerboard="true"
     inkscape:zoom="3.6307692"
     inkscape:cx="109.57446"
     inkscape:cy="31.858501"
     inkscape:window-x="-8"
     inkscape:window-y="-8"
     inkscape:window-maximized="1"
     inkscape:current-layer="svg43" />
  <!-- Generator: sketchtool 55.2 (78181) - https://sketchapp.com -->
  <title
     id="title2">257C91DE-9B8F-4290-BCB9-519AF92A6846</title>
  <desc
     id="desc4">Created with sketchtool.</desc>
  <g
     id="לוגין"
     style="fill:none;fill-rule:evenodd;stroke:none;stroke-width:0.48511648"
     transform="matrix(2.0613606,0,0,2.0613606,-1.9278781,-1.0747003)">
    <g
       transform="translate(-680,-49)"
       id="Group-2"
       style="fill-rule:nonzero;stroke-width:0.48511648">
      <g
         transform="translate(655,28)"
         id="g39"
         style="stroke-width:0.48511648">
        <g
           id="אייקון-האיזור-האישי"
           transform="rotate(-30,78.374356,-1.0716242)"
           style="stroke-width:0.48511648">
          <path
             d="M 63.59493,56.811432 45.133937,75.273887 c -1.274281,1.271358 -3.338411,1.271358 -4.609769,0 L 3.881295,38.631014 c -3.42462913,-3.423899 -3.42462913,-8.974764 0,-12.397932 L 18.448572,11.663613 Z"
             id="Path"
             inkscape:connector-curvature="0"
             style="fill:#c8d8ff;stroke-width:0.48511648" />
          <path
             d="M 62.692558,55.907599 44.230103,74.370054 c -0.390906,0.389445 -0.88995,0.579418 -1.402147,0.580879 -0.512196,-0.0015 -1.011971,-0.191434 -1.400685,-0.580879 L 4.7836669,37.727911 C 3.3186827,36.262196 2.5909397,34.351506 2.590209,32.432048 c 7.307e-4,-1.92165 0.7284737,-3.83234 2.1934579,-5.296594 L 19.352406,12.567446 c 0.498313,-0.499044 0.498313,-1.307891 -0.0015,-1.806205 -0.498314,-0.498314 -1.30643,-0.498314 -1.804743,0 L 2.9781925,25.32998 c -1.9589141,1.956722 -2.94385118,4.53451 -2.94166297,7.102068 -0.0021882,2.565366 0.98274887,5.143154 2.94166297,7.101338 L 39.621796,76.176259 c 0.881183,0.882644 2.050248,1.329081 3.206891,1.328351 1.156644,7.3e-4 2.324978,-0.444976 3.207621,-1.32762 L 64.498763,57.713073 c 0.498314,-0.498314 0.498314,-1.30716 0,-1.805474 -0.499775,-0.498314 -1.307891,-0.498314 -1.806205,0"
             id="path7"
             inkscape:connector-curvature="0"
             style="fill:#000000;stroke-width:0.48511648" />
          <path
             d="M 63.59493,56.810701 18.448572,11.664343 27.883655,2.2307216 c 1.271359,-1.27208851 3.335489,-1.27208851 4.607577,0 l 40.53732,40.5373204 c 1.272819,1.272819 1.272819,3.335488 0,4.609037 z"
             id="path9"
             inkscape:connector-curvature="0"
             style="fill:#255eea;stroke-width:0.48511648" />
          <path
             d="M 63.59493,56.811432 64.498033,55.907599 20.254047,11.663613 28.786758,3.1323629 c 0.388714,-0.3872528 0.888489,-0.5779564 1.400686,-0.5794177 0.512196,0.00146 1.011241,0.1921649 1.400685,0.5794177 L 72.12545,43.670414 c 0.390906,0.390175 0.579417,0.891411 0.580879,1.402147 -0.0015,0.510735 -0.191435,1.01051 -0.580879,1.400685 l -9.432892,9.434353 0.902372,0.903833 0.903103,-0.903833 -0.903103,0.903833 0.903103,0.901641 9.433622,-9.432891 c 0.882644,-0.882644 1.331272,-2.051709 1.328364,-3.207621 0.0029,-1.156644 -0.44572,-2.324978 -1.328364,-3.208352 L 33.393604,1.3268885 C 32.51096,0.4442446 31.344087,-0.00146133 30.187444,-3.5817381e-6 29.0308,-0.00146133 27.861736,0.4442446 26.980553,1.3283497 l -9.434352,9.4328913 c -0.238197,0.236736 -0.374101,0.565535 -0.374101,0.902372 0,0.336106 0.135904,0.665636 0.372639,0.903833 l 45.147819,45.145627 c 0.240389,0.24112 0.561151,0.37337 0.902372,0.37337 0.341221,0 0.661253,-0.13225 0.903103,-0.37337 z"
             id="path11"
             inkscape:connector-curvature="0"
             style="fill:#000000;stroke-width:0.48511648" />
          <polygon
             id="polygon13"
             points="61.788725,56.811432 40.118649,35.140625 18.448572,13.470549 14.836893,17.082228 58.178507,60.42165 "
             style="fill:#9ebaff;stroke-width:0.48511648" />
          <polygon
             id="polygon15"
             points="18.447842,13.470549 14.836893,17.082228 18.448572,13.470549 "
             style="fill:#54596e;stroke-width:0.48511648" />
          <polygon
             id="polygon17"
             points="18.448572,13.470549 40.118649,35.140625 18.448572,13.469818 18.447842,13.470549 "
             style="fill:#54596e;stroke-width:0.48511648" />
          <path
             d="m 60.887084,30.625843 3.229541,-3.231003 c 0.851226,-0.849033 1.281588,-1.974988 1.28013,-3.089253 0.0015,-1.114265 -0.428904,-2.240951 -1.28086,-3.091446 L 54.044402,11.142648 C 53.194638,10.291423 52.068683,9.8610611 50.955148,9.8625187 49.840153,9.8610611 48.714197,10.291423 47.864433,11.142648 l -3.230272,3.229542 c -0.498314,0.498314 -0.499044,1.30716 0,1.806205 0.499045,0.498314 1.307892,0.498314 1.806206,0 l 3.230272,-3.230272 c 0.357295,-0.357296 0.815422,-0.530463 1.284509,-0.531925 0.469088,0.0015 0.925753,0.174629 1.283049,0.531925 l 10.072954,10.072223 c 0.357295,0.357296 0.531194,0.815423 0.532655,1.28451 -0.0015,0.468357 -0.17536,0.925753 -0.532655,1.283779 l -3.229541,3.231734 c -0.499045,0.498314 -0.499045,1.30716 0,1.806205 0.498314,0.498314 1.30643,0.498314 1.805474,-7.31e-4 z"
             id="path19"
             inkscape:connector-curvature="0"
             style="fill:#000000;stroke-width:0.48511648" />
          <polygon
             id="polygon21"
             points="50.352349,35.042716 43.383993,42.012534 33.250394,31.880396 40.21875,24.910578 "
             style="fill:#c8d8ff;stroke-width:0.48511648" />
          <path
             d="m 43.379609,42.012534 0.903102,-0.903103 -9.229766,-9.228305 5.162882,-5.162882 8.325933,8.325933 -6.065254,6.065254 0.903103,0.903103 0.903102,-0.903103 -0.903102,0.903103 0.903102,0.903102 6.968357,-6.968356 c 0.237466,-0.238197 0.37337,-0.566997 0.37337,-0.903103 0,-0.336106 -0.135904,-0.665636 -0.37337,-0.903102 L 41.11893,24.009667 c -0.498314,-0.499044 -1.307161,-0.499044 -1.805475,0 l -6.969818,6.968357 c -0.237466,0.237466 -0.3741,0.566266 -0.3741,0.903102 0,0.336106 0.136634,0.664906 0.3741,0.902372 l 10.132869,10.132138 c 0.24112,0.24112 0.561882,0.37337 0.903103,0.37337 0.34122,0 0.661983,-0.13225 0.902372,-0.37337 z"
             id="path23"
             inkscape:connector-curvature="0"
             style="fill:#000000;stroke-width:0.48511648" />
          <g
             id="Group"
             transform="translate(41.899281,26)"
             style="fill:#000000;stroke-width:0.48511648">
            <path
               d="m 27.487635,31.184802 4.514782,4.514051 c 0.498314,0.499045 1.30716,0.499045 1.805474,0 0.499045,-0.498313 0.499045,-1.30716 0,-1.805474 L 29.29384,29.378597 c -0.499045,-0.498314 -1.307161,-0.498314 -1.806205,0 -0.498314,0.499045 -0.498314,1.307891 0,1.806205"
               id="path25"
               inkscape:connector-curvature="0"
               style="stroke-width:0.48511648" />
            <path
               d="m 11.234712,47.747527 7.223359,7.222628 c 0.499044,0.498314 1.307161,0.498314 1.806205,0 0.498314,-0.498314 0.498314,-1.307891 0,-1.806205 l -7.224089,-7.222628 c -0.498314,-0.498314 -1.307161,-0.498314 -1.805475,0 -0.499044,0.499045 -0.499044,1.307891 0,1.806205"
               id="path27"
               inkscape:connector-curvature="0"
               style="stroke-width:0.48511648" />
            <path
               d="m 17.397145,40.957453 7.007812,7.007812 c 0.499045,0.499045 1.307891,0.499045 1.806205,0 0.498314,-0.498314 0.498314,-1.30716 0,-1.805474 L 19.20335,39.151248 c -0.499045,-0.498314 -1.307161,-0.498314 -1.806205,0 -0.498314,0.499044 -0.498314,1.307891 0,1.806205"
               id="path29"
               inkscape:connector-curvature="0"
               style="stroke-width:0.48511648" />
            <path
               d="m 27.551933,51.112972 4.515513,4.514782 c 0.498314,0.498314 1.30716,0.498314 1.805474,-7.31e-4 0.499045,-0.498314 0.499045,-1.30716 0,-1.805474 l -4.515512,-4.514051 c -0.499045,-0.499045 -1.307161,-0.499045 -1.806205,0 -0.498314,0.498314 -0.498314,1.30716 7.3e-4,1.805474"
               id="path31"
               inkscape:connector-curvature="0"
               style="stroke-width:0.48511648" />
            <path
               d="m 23.282655,37.066659 10.495279,10.495279 c 0.498314,0.498314 1.30716,0.498314 1.805474,0 0.499045,-0.499044 0.499045,-1.307161 0,-1.806205 L 25.08886,35.261185 c -0.499044,-0.499045 -1.30716,-0.499045 -1.806205,0 -0.498314,0.498314 -0.498314,1.30716 0,1.805474"
               id="path33"
               inkscape:connector-curvature="0"
               style="stroke-width:0.48511648" />
            <path
               d="M 2.3286309,6.7550022 6.7981115,2.2855216 c 0.4983138,-0.4983138 0.4983138,-1.30716049 0,-1.80547443 -0.4990446,-0.49904438 -1.3071605,-0.49904438 -1.806205,0 L 0.52315647,4.9487972 c -0.49904456,0.4990445 -0.49904456,1.3071604 0,1.806205 0.49831393,0.4983139 1.30642983,0.4983139 1.80547443,0"
               id="path35"
               inkscape:connector-curvature="0"
               style="stroke-width:0.48511648" />
          </g>
        </g>
      </g>
    </g>
  </g>
</svg>
