<svg width="46" height="47" viewBox="0 0 46 47" fill="none" xmlns="http://www.w3.org/2000/svg">
<path d="M35.3187 23.8627L32.4602 34.5324C32.2623 35.2678 31.506 35.7045 30.7712 35.5076L9.59408 29.8332C7.61503 29.3031 6.4408 27.2693 6.97144 25.2906L9.22682 16.8709L35.3187 23.8627Z" fill="#C8D8FF"/>
<path d="M34.7969 23.7223L31.9379 34.3924C31.877 34.6178 31.7344 34.793 31.547 34.9019C31.359 35.0097 31.1357 35.0458 30.9109 34.9853L9.73366 29.3114C8.88684 29.0842 8.21602 28.5381 7.80971 27.835C7.40347 27.1307 7.26593 26.2767 7.49295 25.4303L9.74917 17.0108C9.82619 16.7226 9.65508 16.4262 9.36656 16.3494C9.07856 16.2722 8.78247 16.4431 8.70531 16.7311L6.4495 25.1507C6.14569 26.2821 6.33011 27.4349 6.87405 28.3752C7.41593 29.3156 8.3221 30.0517 9.45407 30.3548L30.6315 36.029C31.1411 36.166 31.6638 36.0823 32.0875 35.8374C32.5114 35.593 32.8452 35.1825 32.9819 34.6724L35.8406 24.0018C35.9178 23.7138 35.7467 23.4174 35.4587 23.3403C35.1702 23.2634 34.8741 23.4344 34.7969 23.7223Z" fill="white"/>
<path d="M35.3186 23.8624L9.22697 16.8712L10.6884 11.4189C10.8851 10.6838 11.6414 10.2472 12.3766 10.4442L35.8045 16.7217C36.5401 16.9188 36.9764 17.6745 36.7794 18.4104L35.3186 23.8624Z" fill="#255EEA"/>
<path d="M35.3187 23.8627L35.4584 23.3405L9.88834 16.489L11.21 11.5582C11.2705 11.3341 11.4133 11.1585 11.6006 11.0496C11.7886 10.9418 12.0118 10.9061 12.2364 10.9656L35.6644 17.2433C35.8902 17.3036 36.0653 17.4474 36.1739 17.6342C36.2814 17.8216 36.3175 18.0449 36.2574 18.2703L34.7969 23.7224L35.3187 23.8627L35.4584 23.3405L35.3187 23.8627L35.8404 24.002L37.3014 18.5502C37.4381 18.0401 37.3551 17.5169 37.1095 17.094C36.8659 16.6696 36.4544 16.3364 35.9441 16.1995L12.516 9.92213C12.0059 9.78544 11.4841 9.86898 11.0606 10.1142C10.6365 10.3583 10.3024 10.7689 10.1666 11.2793L8.70531 16.7312C8.66811 16.8683 8.68787 17.0175 8.75912 17.1409C8.83022 17.2641 8.94973 17.3561 9.08685 17.3933L35.1788 24.3839C35.3179 24.4214 35.4634 24.402 35.5884 24.3298C35.7135 24.2576 35.8028 24.1415 35.8404 24.002L35.3187 23.8627Z" fill="white"/>
<path d="M9.60905 17.5329L9.04976 19.6202L34.0979 26.3312L34.6569 24.2447L22.1329 20.8887L9.60905 17.5329Z" fill="#9EBAFF"/>
<path d="M9.60879 17.5331L9.04976 19.6202L9.60905 17.5329L9.60879 17.5331Z" fill="#54596E"/>
<path d="M9.6089 17.5327L9.60879 17.5331L9.60905 17.533L22.1329 20.8887L9.6089 17.5327Z" fill="#54596E"/>
<path d="M28.7873 14.8412L29.2871 12.9742C29.4194 12.4831 29.3389 11.9795 29.1027 11.5715C28.8675 11.163 28.4715 10.8412 27.9794 10.7098L22.1588 9.15014C21.6673 9.01802 21.1638 9.09852 20.7561 9.33461C20.3472 9.56994 20.0257 9.9658 19.8945 10.4574L19.3941 12.3241C19.3169 12.6121 19.4877 12.9086 19.7761 12.9858C20.0644 13.0629 20.3608 12.8918 20.4379 12.6038L20.9382 10.7369C20.9935 10.5304 21.1247 10.37 21.2963 10.2703C21.4685 10.1716 21.6724 10.1384 21.8789 10.1937L27.7003 11.7533C27.9067 11.8087 28.0674 11.9397 28.1671 12.1113C28.2657 12.2832 28.2987 12.4876 28.2435 12.6944L27.7439 14.5616C27.6665 14.8498 27.8376 15.1461 28.126 15.2234C28.414 15.3006 28.7101 15.1296 28.7873 14.8412Z" fill="white"/>
<path d="M18.9268 21.1471L20.0056 17.1193L25.8618 18.688L24.783 22.7158L18.9268 21.1471Z" fill="#C8D8FF"/>
<path d="M24.7814 22.7167L24.9212 22.1948L19.5874 20.766L20.3869 17.7822L25.1987 19.0716L24.2595 22.5769L24.7814 22.7167L24.9212 22.1948L24.7814 22.7167L25.3033 22.8566L26.3824 18.8293C26.419 18.6918 26.3993 18.5426 26.3282 18.4195C26.2571 18.2963 26.1376 18.2043 26.0003 18.1675L20.1448 16.5988C19.8566 16.5213 19.5603 16.6924 19.4833 16.9807L18.4036 21.0083C18.3669 21.1455 18.3864 21.2949 18.4576 21.4183C18.5287 21.5414 18.6483 21.633 18.7856 21.6698L24.6415 23.2387C24.7809 23.276 24.9264 23.2566 25.0514 23.1844C25.1764 23.1122 25.266 22.9959 25.3031 22.8567L24.7814 22.7167Z" fill="white"/>
<path d="M37.5199 22.7742L40.129 23.4731C40.4171 23.5505 40.7135 23.3794 40.7905 23.0912C40.8679 22.803 40.6968 22.5067 40.4086 22.4297L37.7996 21.7304C37.5113 21.6533 37.2152 21.8243 37.1378 22.1124C37.0608 22.4007 37.2319 22.6971 37.5199 22.7742Z" fill="white"/>
<path d="M35.0685 32.2809L39.243 33.3992C39.5313 33.4762 39.8273 33.3053 39.9048 33.0171C39.982 32.7291 39.8107 32.4325 39.5227 32.3553L35.348 31.2372C35.06 31.16 34.7636 31.3311 34.6864 31.6191C34.6092 31.9075 34.7803 32.2039 35.0685 32.2809Z" fill="white"/>
<path d="M35.8901 28.4894L39.9401 29.5746C40.2285 29.6519 40.5249 29.4808 40.6019 29.1926C40.6791 28.9046 40.508 28.6082 40.22 28.531L36.1698 27.4456C35.8815 27.3686 35.5854 27.5395 35.508 27.8277C35.431 28.1159 35.6021 28.4123 35.8901 28.4894Z" fill="white"/>
<path d="M41.759 30.0622L44.3685 30.7612C44.6565 30.8384 44.9529 30.6673 45.0299 30.379C45.1073 30.0909 44.9362 29.7945 44.648 29.7175L42.0386 29.0188C41.7502 28.9415 41.4541 29.1125 41.3768 29.4009C41.2996 29.6889 41.4707 29.9852 41.759 30.0622Z" fill="white"/>
<path d="M37.2234 25.8188L43.289 27.4441C43.577 27.5213 43.8734 27.3502 43.9505 27.0622C44.0278 26.7738 43.8569 26.4777 43.5684 26.4004L37.5033 24.7752C37.2149 24.698 36.9188 24.8689 36.8415 25.1573C36.7643 25.4453 36.9354 25.7417 37.2234 25.8188Z" fill="white"/>
<path d="M23.1339 19.1454L23.826 16.5623C23.9032 16.2743 23.7321 15.978 23.4441 15.9008C23.1557 15.8235 22.8596 15.9945 22.7823 16.2829L22.0903 18.8655C22.013 19.1539 22.184 19.45 22.4724 19.5273C22.7604 19.6045 23.0565 19.4335 23.1339 19.1454Z" fill="white"/>
</svg>
